<svg xmlns="http://www.w3.org/2000/svg" width="1064.715" height="1030.805" viewBox="0 0 1064.715 1030.805">
  <path id="Path_17013" data-name="Path 17013" d="M327.653,40.559c-2.032,7.9-9.581,23.687-23.519,23.687-17.422,0-40.07,21.082-34.842,22.769s-6.97,15.179,0,14.336,29.617-27.828,25.261-16.866-41.812,53.97-30.488,43.007,62.717-37.948,57.492-40.478,15.68-25.3,23.519-25.3,11.324,20.239,2.614,22.769,21.776-2.53,21.776,0-1.742,37.948,5.227,37.948-51.393,29.515-56.621,19.4-27.875,27.828-13.937,25.3,23.519-9.276,23.519-3.374-43.553,21.926-45.3,20.24c-1.393-1.35,4.064-7.871,6.968-10.962-8.129,1.124-25.609,5.228-30.487,12.649-6.1,9.276-40.07,31.2-47.039,31.2S192.638,252.3,172.6,252.3s-38.327,75.054-47.038,74.21,7.84-29.515,6.969-39.634-10.453,1.687-10.453-5.06-13.937,2.53-19.164,0c-4.181-2.023-5.807-7.589-6.1-10.119-12.2,14.617-36.759,46.38-37.456,56.5-.871,12.649-16.55,47.223-7.84,45.537s11.324,0,13.066-3.374,7.84-20.238,13.066-20.238,10.453-1.687,5.226,10.962-22.648,38.791-16.55,40.478,18.293,2.53,18.293,14.336S73.3,448.783,75.913,456.373s7.84,20.238,12.195,18.551,7.84-6.745,13.937-2.53,5.226,14.336,9.582,9.277,3.484-19.4,11.324-20.24,14.808-12.649,21.777-10.962-9.582,13.493-3.484,14.336,10.453-10.962,13.937-10.119-.871,9.276,5.226,9.276-.871,8.432,5.226,8.432,30.487-19.395,46.167,0,18.293,53.97,38.327,53.97,46.168,10.963,52.265,21.925,8.712,20.24,17.422,25.3,0,19.4,8.71,23.613,17.422,7.589,35.715,18.551,17.42,5.06,29.615,5.9,20.036,1.687,28.746,12.649,17.422,16.023,25.261,12.649,15.68,28.672.871,43.006-33.971,22.77-32.229,35.419,6.968,42.163-7.841,58.186-29.615,17.71-51.393,26.142-2.614,18.553-12.195,31.2-22.648,23.612-34.842,28.67,2.613,27.829-1.742,30.359-21.778-8.432-23.519-4.217,8.71,21.927,0,23.613S278,907.529,274.518,910.9s-20.905,31.2-47.909-15.179-53.136-95.29-54.007-139.985-48.78-27.829-57.491-74.209S67.2,604.79,84.623,589.611c-3.484-13.773-7.143-41.658,6.1-43.006,16.551-1.687,4.355-24.457,7.84-37.106s3.484-32.887-4.355-27.827-12.2,13.493-12.2,6.745S65.46,463.962,65.46,456.373s5.227-33.732-4.355-32.889S50.651,401.559,49.78,391.44s-10.453,16.021-13.937-2.53-3.484-45.538,6.1-60.716c7.665-12.144,20-46.1,25.216-61.561m260.5-226.074c-110.9,44.858-202.739,125.064-260.5,226.074m260.5-226.074q20.486-8.287,41.812-14.938M67.156,266.633A499.344,499.344,0,0,0,1,515.4c0,275.045,222.979,499.672,503.483,513.707M369.465,25.622A547.068,547.068,0,0,1,532.358,1q26.848,0,53.031,2.53M369.465,25.622C365.982,36.81,360.059,60.03,364.24,63.4c5.225,4.216,1.742,0,7.839-4.216s12.195,12.649,15.68,7.59,2.614-25.3,6.968-21.082,11.325,16.022,13.937,13.493-18.292-25.3,5.227-25.3,40.07-3.373,27.875,18.552,4.354,39.634,17.422,33.731,37.456-43.851,61.846-43.851S555.005,76.9,571.556,74.366,594.2,64.246,588.978,58.343s-44.426-1.686-36.587-13.492S590.72,51.6,594.2,48.224,542.6,8.59,585.388,3.53m0,0A544.255,544.255,0,0,1,687.409,23.245m0,0c19.746,10.856,54.356,32.568,34.844,32.568-24.39,0-51.393,21.925-37.456,26.985s49.651,43.007,37.456,48.91-2.614,21.082-12.2,20.239-33.973,4.216-22.649,5.9,47.91,30.357,37.458,36.261-45.3-21.925-47.91-5.9,7.841,29.515,2.614,29.515,5.227,10.119,5.227,19.4,19.163,2.529,19.163,9.276,12.2,15.179,3.485,20.238S687.409,277.6,684.8,307.955,666.5,310.485,655.18,345.9s-29.617,34.574-14.808,60.716-14.809,22.77,0,60.717,61.846,58.186,78.4,80.954,14.809-5.9,43.554-5.9,52.265,4.217,51.393-18.553,13.066,3.374,29.617,5.06-4.356,16.866,12.195,16.866,25.261-14.336,25.261,5.9-9.583,51.44,6.1,65.776,13.937,24.455,11.324,56.5-23.519,53.127-17.42,95.29-12.195,10.119-7.841,55.657-29.615,41.321-7.839,41.321,60.974-27.828,74.912-57.344,50.524-34.574,50.524-57.342,40.939-53.971,40.939-88.544,16.551-71.68,16.551-111.314,10.4-72.522,7.378-127.336m-368-401.082A534.96,534.96,0,0,1,900.382,144.358m155.031,279.97a501.565,501.565,0,0,1,8.3,91.075c0,234.344-161.87,432.09-383.274,494.161m374.972-585.236a498.59,498.59,0,0,0-36.124-115.154M504.483,1029.109q13.846.694,27.875.7a547.906,547.906,0,0,0,148.083-20.241m-175.958,19.545c5.807-5.951,24.564-17.857,53.136-17.857,35.714,0,80.139-13.491,94.948-3.372,11.846,8.094,23.519,4.5,27.875,1.684m319.972-737.87c-4.451-1.967-11.437-3.374-3.771,6.745s18.293,24.706,22.648,30.735m-18.877-37.48q10.2,18.309,18.877,37.48m-18.877-37.48a512.033,512.033,0,0,0-35.276-54.814m0,0c-7.5-.561-22.5-4.553-22.5-16.023,0-14.334-32.229-33.731-33.1-38.79-.7-4.048-6.391-13.493-9.152-17.709m64.754,72.522a522.41,522.41,0,0,0-64.754-72.522M97.69,347.589c2.613-3.654,10.1-9.614,19.164-4.217,11.324,6.747,8.711,23.613,20.906,25.3s7.84,6.747-3.484,6.747,1.742-5.06-1.742-5.06-16.551-15.179-17.422-20.238S90.721,357.708,97.69,347.589Zm54.007,31.2c1.742,9.276,0,12.649-6.969,12.649s9.582,5.059,20.906,4.215,13.067-.843,13.067-3.372S151.11,372.044,151.7,378.791ZM185.668,396.5c8.71-.843,13.937.843,9.581,5.06S177.829,397.342,185.668,396.5ZM122.951,386.38c3.348.584,6.1,8.432,0,8.432s-6.1-5.059-4.355-6.745C119.989,386.718,121.148,386.067,122.951,386.38Zm848.43-84.327c14.809-11.806,26.132,34.574,33.1,43.85s24.391,26.985,27.875,45.538,10.454,32.887,5.227,28.67-13.937-27.827-21.776-36.261-6.969-22.768-14.808-32.044S987.06,327.351,979.22,317.23,966.154,307.955,971.381,302.053ZM888.628,216.88c18.293,21.926,24.39,21.926,30.488,17.71s18.293,12.649,19.163-2.53,3.485,23.612,8.712,23.612-1.742,28.672-11.324,25.3S906.05,261.575,897.34,265.79s5.225,5.06,0,18.553-20.907,13.493-25.263,0-19.163-6.747-28.744-12.649-11.326,1.687-13.066-16.023-4.356-16.023-16.551-16.023-39.2-3.372-51.393,4.217-26.132,13.493-34.844,11.806-.871-8.432,13.937-16.023,44.426-25.3,20.907-20.238S739.673,204.231,751,203.387s44.424-1.687,44.424,13.493-2.614-9.276,11.324-7.589,13.066,25.3,23.52,25.3,24.39-4.217,9.581-17.71S769.29,183.149,774.518,176.4s37.456,5.9,57.49,19.4,19.165,36.261,34.844,36.261-14.808-25.3-.871-26.985,32.229,0,22.647-6.745-30.488-36.262-21.776-36.262,21.776,17.709,21.776,10.963-18.291-16.866-10.453-21.083,52.265,40.477,44.425,42.164-25.261-9.276-25.261,0S895.6,221.1,888.628,216.88ZM714.412,91.231c20.036,20.239,33.973,15.179,47.91,17.709s16.549-21.082,0-26.142-12.336,17.709-27.875,15.179C722.016,95.954,715.911,92.637,714.412,91.231ZM649.082,108.94c-12.02-.371-19.163,29.515-4.354,29.515s27-4.216,19.163-16.866C657.619,111.47,656.79,109.178,649.082,108.94Zm7.841-21.925c-5.227,5.622-14.112,16.866-7.841,16.866,7.841,0,14.809-1.687,14.809,5.06s0,12.649,7.841,12.649,7.839,5.9,7.839,13.493,12.195,5.9,17.422,5.9,16.549-14.336,3.483-16.866-9.581-15.179-20.905-15.179-10.453-12.649-13.937-12.649C662.844,96.291,658.663,90.107,656.922,87.015Zm-323.17,69.993c13.937-8.433,33.1-26.142,43.554-25.3s-15.68,14.336-7.841,27.828-7.839,0-19.163,0S325.042,162.838,333.752,157.007Z" fill="none" stroke="#fff" stroke-width="2"/>
</svg>
