<svg xmlns="http://www.w3.org/2000/svg" width="198.275" height="44.697" viewBox="0 0 198.275 44.697">
  <path id="Union_3" data-name="Union 3" d="M18469.008,3478l3.982-28.189h4.539l-.4,2.866h.078a7.513,7.513,0,0,1,3.143-2.549,10,10,0,0,1,3.9-.794,8.965,8.965,0,0,1,3.838.775,6.979,6.979,0,0,1,2.676,2.129,7.922,7.922,0,0,1,1.391,3.189,11.757,11.757,0,0,1,.1,3.94,13.15,13.15,0,0,1-1.232,3.94,11.572,11.572,0,0,1-2.33,3.184,10.693,10.693,0,0,1-3.225,2.129,9.7,9.7,0,0,1-3.838.78,9.09,9.09,0,0,1-2.354-.28,7.113,7.113,0,0,1-1.732-.714,5.754,5.754,0,0,1-1.213-.934,6.964,6.964,0,0,1-.795-.98h-.121l-1.629,11.508Zm11.248-23.9a6.531,6.531,0,0,0-1.934,1.274,6.931,6.931,0,0,0-1.377,1.844,6.732,6.732,0,0,0-.691,2.152,5.638,5.638,0,0,0,.08,2.147,4.7,4.7,0,0,0,.854,1.849,4.445,4.445,0,0,0,1.592,1.27,5.256,5.256,0,0,0,2.293.481,6.126,6.126,0,0,0,2.428-.481,6.479,6.479,0,0,0,3.324-3.1,6.886,6.886,0,0,0,.652-2.161,5.742,5.742,0,0,0-.074-2.152,4.751,4.751,0,0,0-.859-1.844,4.438,4.438,0,0,0-1.592-1.274,5.162,5.162,0,0,0-2.287-.476h-.066A5.973,5.973,0,0,0,18480.256,3454.1Zm-72.471,14.65a8.11,8.11,0,0,1-3.787-2.955l4.3-3.665a5.417,5.417,0,0,0,2.129,2.171,6.126,6.126,0,0,0,3.049.78,6.842,6.842,0,0,0,1.77-.243,6.194,6.194,0,0,0,1.676-.714,4.781,4.781,0,0,0,1.33-1.214,3.75,3.75,0,0,0,.719-1.69,2.644,2.644,0,0,0-.676-2.39,7.143,7.143,0,0,0-2.293-1.415c-.937-.388-1.961-.756-3.062-1.111a11.793,11.793,0,0,1-3.006-1.415,5.91,5.91,0,0,1-2.588-6.391,8.613,8.613,0,0,1,1.416-3.758,9.984,9.984,0,0,1,2.727-2.647,12.2,12.2,0,0,1,3.561-1.573,15.3,15.3,0,0,1,3.9-.518,13.228,13.228,0,0,1,4.238.682,7.863,7.863,0,0,1,3.4,2.218l-4.184,3.889a4.005,4.005,0,0,0-1.91-1.69,6.736,6.736,0,0,0-2.707-.542,7.731,7.731,0,0,0-1.732.2,5.317,5.317,0,0,0-1.568.635,4.22,4.22,0,0,0-1.219,1.139,3.563,3.563,0,0,0-.615,1.653,2.288,2.288,0,0,0,.676,2.185,7.937,7.937,0,0,0,2.293,1.316q1.415.553,3.063,1.074a11.526,11.526,0,0,1,3.025,1.433,6.331,6.331,0,0,1,2.152,2.428,6.739,6.739,0,0,1,.414,4.02,9.7,9.7,0,0,1-4.037,6.765,11.458,11.458,0,0,1-3.525,1.676,14.624,14.624,0,0,1-4.02.56h-.039A13.8,13.8,0,0,1,18407.785,3468.747Zm171.779-.052a7.821,7.821,0,0,1-4.8-5.2,9.556,9.556,0,0,1-.238-4.118,11.231,11.231,0,0,1,1.391-4.122,11.623,11.623,0,0,1,6.273-5.191,12.157,12.157,0,0,1,4.16-.719,7.215,7.215,0,0,1,6.088,2.685q2.074,2.689,1.4,7.708l-.2,1.312-14.574-.014a4.518,4.518,0,0,0,.293,1.909,3.991,3.991,0,0,0,.939,1.419,4.122,4.122,0,0,0,1.432.892,5.079,5.079,0,0,0,1.846.322,6.381,6.381,0,0,0,3.123-.738,9.487,9.487,0,0,0,2.367-1.849l3.066,2.586a11.377,11.377,0,0,1-8.6,3.828h-.145A10.52,10.52,0,0,1,18579.564,3468.7Zm1.994-14.542a6.419,6.419,0,0,0-1.988,3.3h9.789a3.91,3.91,0,0,0-.83-3.324,4.339,4.339,0,0,0-3.385-1.209c-.064,0-.127,0-.189,0A5.288,5.288,0,0,0,18581.559,3454.153Zm-48.24,15.248a8.692,8.692,0,0,1-2.525-.369,5.74,5.74,0,0,1-2.092-1.074,4.373,4.373,0,0,1-1.307-1.793,4.775,4.775,0,0,1-.238-2.507,5.945,5.945,0,0,1,1.707-3.641,9.192,9.192,0,0,1,3.307-2.017,15.771,15.771,0,0,1,4.043-.831c1.414-.107,2.727-.159,3.922-.159h1.189l.043-.518a2.672,2.672,0,0,0-.836-2.689,4.717,4.717,0,0,0-3.025-.892,7.938,7.938,0,0,0-2.908.537,8.46,8.46,0,0,0-2.465,1.452l-2.158-2.493a10.877,10.877,0,0,1,4.043-2.353,14.687,14.687,0,0,1,4.52-.714,10.525,10.525,0,0,1,3.361.453,6.34,6.34,0,0,1,2.152,1.181,4.094,4.094,0,0,1,1.172,1.648,6.773,6.773,0,0,1,.439,1.891,9.43,9.43,0,0,1,0,1.849c-.066.6-.127,1.106-.178,1.573l-1.518,10.985h-4.332l.359-2.624h-.117a7.641,7.641,0,0,1-2.955,2.367,8.882,8.882,0,0,1-3.537.738Zm3.992-8.959a12.9,12.9,0,0,0-2.391.369,6.182,6.182,0,0,0-1.971.878,2.3,2.3,0,0,0-.994,1.611,1.888,1.888,0,0,0,.158,1.135,2.209,2.209,0,0,0,.678.78,2.786,2.786,0,0,0,.994.453,4.371,4.371,0,0,0,1.152.14,5.667,5.667,0,0,0,3.824-1.172,4.953,4.953,0,0,0,1.629-3.2l.164-1.069h-.994C18538.893,3460.362,18538.141,3460.39,18537.311,3460.441Zm16.3,8.179a7.132,7.132,0,0,1-2.664-2.129,7.967,7.967,0,0,1-1.439-3.184,10.863,10.863,0,0,1-.074-3.94,11.677,11.677,0,0,1,1.229-3.94,12.22,12.22,0,0,1,2.371-3.189,10.722,10.722,0,0,1,3.227-2.129,9.7,9.7,0,0,1,3.842-.775,8.864,8.864,0,0,1,2.348.275,6.607,6.607,0,0,1,1.709.719,5.975,5.975,0,0,1,1.2.934,7.24,7.24,0,0,1,.8.976h.121l1.91-13.408h4.775l-4.2,30.094h-4.557l.4-2.871h-.084a7.725,7.725,0,0,1-3.16,2.549,9.753,9.753,0,0,1-3.885.794l-.221,0A8.859,8.859,0,0,1,18553.611,3468.62Zm4.6-14.524a6.5,6.5,0,0,0-1.928,1.274,6.808,6.808,0,0,0-1.377,1.844,6.7,6.7,0,0,0-.7,2.152,5.841,5.841,0,0,0,.08,2.147,4.632,4.632,0,0,0,.859,1.849,4.428,4.428,0,0,0,1.592,1.27,5.166,5.166,0,0,0,2.287.481,6.093,6.093,0,0,0,2.428-.481,6.485,6.485,0,0,0,1.951-1.27,6.609,6.609,0,0,0,1.355-1.849,6.968,6.968,0,0,0,.676-2.147,5.743,5.743,0,0,0-.08-2.152,4.74,4.74,0,0,0-.854-1.844,4.488,4.488,0,0,0-1.592-1.274,5.187,5.187,0,0,0-2.293-.476h-.066A6.008,6.008,0,0,0,18558.211,3454.1Zm-105.482,14.584a8.136,8.136,0,0,1-3.023-2.026,7.992,7.992,0,0,1-1.775-3.165,9.605,9.605,0,0,1-.246-4.122,11.237,11.237,0,0,1,1.395-4.122,11.674,11.674,0,0,1,2.666-3.165,11.837,11.837,0,0,1,3.6-2.026,12.2,12.2,0,0,1,4.164-.719,10.476,10.476,0,0,1,3.932.719,7.837,7.837,0,0,1,4.779,5.191,9.512,9.512,0,0,1,.234,4.122,11.239,11.239,0,0,1-1.391,4.118,11.83,11.83,0,0,1-2.648,3.165,11.591,11.591,0,0,1-3.58,2.031,12.272,12.272,0,0,1-4.16.714h-.109A10.649,10.649,0,0,1,18452.729,3468.681Zm3.73-14.571a6.6,6.6,0,0,0-1.932,1.274,6.979,6.979,0,0,0-1.369,1.844,6.762,6.762,0,0,0-.7,2.138,5.718,5.718,0,0,0,.084,2.147,4.667,4.667,0,0,0,.85,1.849,4.478,4.478,0,0,0,1.592,1.27,5.256,5.256,0,0,0,2.293.481,6.131,6.131,0,0,0,2.432-.481,6.469,6.469,0,0,0,3.3-3.1,7.081,7.081,0,0,0,.682-2.147,5.993,5.993,0,0,0-.084-2.152,4.585,4.585,0,0,0-.859-1.844,4.44,4.44,0,0,0-1.592-1.274,5.147,5.147,0,0,0-2.287-.476h-.068A6.016,6.016,0,0,0,18456.459,3454.111Zm-16.75,14.827,1.354-9.673a17.224,17.224,0,0,0,.164-1.769,6.541,6.541,0,0,0-.182-1.849,2.917,2.917,0,0,0-.859-1.433,2.732,2.732,0,0,0-1.873-.574,4.953,4.953,0,0,0-2.072.4,4.47,4.47,0,0,0-1.475,1.074,5.43,5.43,0,0,0-.99,1.555,6.178,6.178,0,0,0-.5,1.844l-1.437,10.43h-4.791l4.221-30.108h4.777l-1.91,13.665h.08a6.845,6.845,0,0,1,2.268-2.166,8,8,0,0,1,6.947-.341,4.9,4.9,0,0,1,1.934,1.676,5.458,5.458,0,0,1,.834,2.39,11.029,11.029,0,0,1-.041,2.824l-1.672,12.059Zm72.5-.014,2.666-19.113h4.758l-.434,3.025h.078a7.372,7.372,0,0,1,2.646-2.586,7.012,7.012,0,0,1,3.525-.915,4.174,4.174,0,0,1,.836.079c.262.056.547.117.836.2l-.678,4.613c-.369-.1-.736-.191-1.105-.257a6.324,6.324,0,0,0-1.107-.1,5.72,5.72,0,0,0-2.791.616,6.188,6.188,0,0,0-1.77,1.415,5.448,5.448,0,0,0-.937,1.592,5.782,5.782,0,0,0-.318,1.2l-1.434,10.229Zm-12.982-.014,3.311-23.637h-8.643l.631-4.538h22.293l-.641,4.538h-8.627l-3.3,23.637Zm94.809-24.094a5.584,5.584,0,0,1-1.854-1.256,5.715,5.715,0,0,1-1.213-1.9,6.3,6.3,0,0,1-.443-2.376,6.183,6.183,0,0,1,.471-2.446,5.815,5.815,0,0,1,1.279-1.891,5.748,5.748,0,0,1,1.881-1.214,5.972,5.972,0,0,1,2.26-.434,5.87,5.87,0,0,1,2.232.434,5.705,5.705,0,0,1,3.15,3.1,6.567,6.567,0,0,1,0,4.893,5.7,5.7,0,0,1-3.15,3.1,5.874,5.874,0,0,1-2.232.434A6.1,6.1,0,0,1,18594.037,3444.815Zm.561-10.112a4.366,4.366,0,0,0-1.461,1.018,4.633,4.633,0,0,0-.977,1.569,5.549,5.549,0,0,0-.35,2,5.628,5.628,0,0,0,.316,1.919,4.791,4.791,0,0,0,.92,1.569,4.41,4.41,0,0,0,1.447,1.064,4.531,4.531,0,0,0,1.924.392,4.467,4.467,0,0,0,1.789-.359,4.339,4.339,0,0,0,1.455-1.018,4.686,4.686,0,0,0,.977-1.559,5.82,5.82,0,0,0,0-4.006,4.633,4.633,0,0,0-.977-1.569,4.4,4.4,0,0,0-1.455-1.018,4.467,4.467,0,0,0-1.789-.359A4.619,4.619,0,0,0,18594.6,3434.7Zm3.371,8.007-1.715-2.829h-1.021v2.829h-1.088v-6.62h2.512a3.031,3.031,0,0,1,1.807.448,1.677,1.677,0,0,1,.607,1.452,1.611,1.611,0,0,1-.5,1.312,2.238,2.238,0,0,1-1.232.5l1.859,2.908Zm-2.736-3.758h1.213c.207,0,.4-.01.584-.023a1.215,1.215,0,0,0,.49-.135.9.9,0,0,0,.336-.313,1.073,1.073,0,0,0,.127-.57.773.773,0,0,0-.135-.481.941.941,0,0,0-.342-.271,1.356,1.356,0,0,0-.467-.117,4.544,4.544,0,0,0-.494-.028h-1.312Z" transform="translate(-18403.998 -3433.303)" fill="#fff"/>
</svg>
